<svg xmlns="http://www.w3.org/2000/svg" width="1000" height="430" viewBox="0 0 1000 430"><rect width="100%" height="100%" fill="#faf7ef"/><text x="30" y="32" font-size="24" font-family="sans-serif">西—东剖面：岩台、门前、两户角色与轻载出口</text><g transform="translate(70 70)"><polyline points="0,260 100,245 220,220 350,180 500,150 650,120 800,95" fill="none" stroke="#654c3a" stroke-width="5"/><polyline points="0,260 100,245 220,220 350,180 500,150 650,120 800,95" fill="none" stroke="#bd8b55" stroke-width="16" opacity=".35"/><rect x="140" y="155" width="150" height="65" fill="#c9ddec" stroke="#256080"/><rect x="430" y="75" width="170" height="75" fill="#d9c5a2" stroke="#8a5a2b"/><path d="M50 260 Q250 220 410 165 Q570 125 800 95" fill="none" stroke="#315a9b" stroke-width="3" stroke-dasharray="10 6"/><path d="M15 275 L210 235 L390 190 L580 150 L820 105" fill="none" stroke="#b23b32" stroke-width="2"/><g font-family="sans-serif" font-size="17" fill="#222"><text x="145" y="145">NF-01 低肩：修理/值守</text><text x="430" y="65">NF-02 高侧：复核/短宿</text><text x="275" y="215">SPACE-01 门前/卸载</text><text x="625" y="85">接 P04 ROUTE-02</text><text x="0" y="310">约 Y129</text><text x="760" y="80">约 Y139</text><text x="0" y="350">剖面只固定高差、角色、连续通行与“顺坡适应”要求；不规定建筑结构、台阶数量或材料。</text></g></g></svg>
